<svg width="172" height="250" viewBox="0 0 172 250" fill="none" xmlns="http://www.w3.org/2000/svg">
<path d="M147.766 4C147.766 7.6 148.166 8 151.766 8C155.366 8 155.766 7.6 155.766 4C155.766 0.4 155.366 -4.17233e-07 151.766 -4.17233e-07C148.166 -4.17233e-07 147.766 0.4 147.766 4Z" fill="black"/>
<path d="M139.766 16.0001C139.766 19.6001 140.166 20.0001 143.766 20.0001C147.366 20.0001 147.766 19.6001 147.766 16.0001C147.766 12.4001 147.366 12.0001 143.766 12.0001C140.166 12.0001 139.766 12.4001 139.766 16.0001Z" fill="black"/>
<path d="M154.432 20.6667V28.0001H162.432H170.432V20.6667V13.3334H162.432H154.432V20.6667Z" fill="black"/>
<path d="M123.766 36V46.6667H134.432H145.099V36V25.3334H134.432H123.766V36Z" fill="black"/>
<path d="M151.766 40V46.6667H159.099H166.432V40V33.3334H159.099H151.766V40Z" fill="black"/>
<path d="M2.03219 49.8667C0.565525 51.4667 0.165525 67.2 0.0321915 148C-0.101142 212.133 0.165525 245.067 1.09886 246.8C3.09886 250.533 15.0989 250.533 17.0989 246.8C18.0322 244.933 18.4322 212.4 18.2989 148C18.1655 64.9334 17.8989 51.7334 16.1655 50C13.7655 47.4667 4.56553 47.4667 2.03219 49.8667Z" fill="black"/>
<path d="M27.2322 54.4C26.8322 55.0667 26.5655 75.4667 26.6989 99.8667L26.9655 144H44.8322H62.5655L62.4322 137.6C62.0322 124.667 61.3655 125.467 71.4989 125.067L80.4322 124.667V116.667V108.667L71.4989 108.267L62.4322 107.867V98.6667V89.4667L71.4989 89.0667L80.4322 88.6667L80.8322 80.2667L81.0989 72H71.8989H62.5655L62.1655 62.9334L61.7655 54L44.8322 53.6C35.6322 53.3334 27.6322 53.7334 27.2322 54.4Z" fill="black"/>
<path d="M81.0988 62V70.6667H89.7655H98.4322V62V53.3334H89.7655H81.0988V62Z" fill="black"/>
<path d="M117.099 61.8667C117.099 71.4667 117.099 71.3334 127.499 71.8667L134.432 72.1334V62.8V53.3334H125.766H117.099V61.8667Z" fill="black"/>
<path d="M153.632 55.2C153.232 56.1333 153.099 60.2667 153.366 64.1333L153.766 71.3333L162.166 71.4667L170.432 71.7333V62.5333V53.3333H162.432C156.832 53.3333 154.166 53.8667 153.632 55.2Z" fill="black"/>
<path d="M99.7655 80.6667V89.3334H108.432H117.099V80.6667V72H108.432H99.7655V80.6667Z" fill="black"/>
<path d="M135.766 80.6667V89.3334H144.432H153.099V80.6667V72H144.432H135.766V80.6667Z" fill="black"/>
<path d="M81.3655 98.9334L81.7655 107.333L90.1655 107.733L98.4322 108.133V99.3334V90.6667H89.7655H80.9655L81.3655 98.9334Z" fill="black"/>
<path d="M117.366 98.9334L117.766 107.333H125.766H133.766L134.166 98.9334L134.566 90.6667H125.766H116.966L117.366 98.9334Z" fill="black"/>
<path d="M153.366 98.9334L153.766 107.333L161.632 107.733C165.899 108 170.032 107.6 170.566 107.067C171.099 106.533 171.232 102.533 170.832 98.2668L170.032 90.6668H161.499H152.966L153.366 98.9334Z" fill="black"/>
<path d="M99.7655 116.667V125.333H108.566C116.032 125.333 117.232 125.067 116.566 123.2C116.166 122 115.766 118.133 115.766 114.533V108H107.766H99.7655V116.667Z" fill="black"/>
<path d="M136.699 108.8C136.166 109.333 135.766 113.333 135.766 117.6V125.333H144.432H153.232L152.832 116.933L152.432 108.667L145.099 108.267C140.966 108 137.232 108.267 136.699 108.8Z" fill="black"/>
<path d="M82.0322 127.6C81.4988 128 81.0988 132 81.0988 136.267V144H89.7655H98.4322V135.333V126.667H90.6988C86.4322 126.667 82.4322 127.067 82.0322 127.6Z" fill="black"/>
<path d="M117.099 135.333V144H125.766H134.432V135.333V126.667H125.766H117.099V135.333Z" fill="black"/>
<path d="M153.099 135.333V144H161.632H170.166L170.699 137.467C171.366 126.8 171.366 126.667 161.632 126.667H153.099V135.333Z" fill="black"/>
<path d="M25.0206 159.342C24.3302 161.144 41.1761 213.41 44.0758 218.43C44.7662 219.846 46.5612 220.619 48.3562 220.361C50.9798 219.975 52.6367 216.371 61.1977 191.01C71.4157 160.886 71.968 156.896 65.4782 157.797C62.9928 158.183 61.612 161.273 55.6745 179.038C51.8083 190.495 48.3562 200.15 47.942 200.536C47.5278 200.923 44.0757 192.169 40.4857 180.969C36.7575 169.898 33.1674 159.985 32.3389 159.084C30.5438 157.024 25.9872 157.153 25.0206 159.342Z" fill="black"/>
<path d="M59.0816 212.812C55.7936 214.188 55 216.35 55 223.769C55 230.746 55.5102 232.515 58.0612 234.53C60.102 236.2 65.204 236.495 67.9818 235.168C71.6666 233.449 73.4239 228.142 70.4194 227.798C69.6258 227.7 69.0589 227.946 68.8321 228.535C67.755 231.336 67.2448 232.073 65.7709 232.613C64.8639 232.957 63.39 233.056 62.4263 232.859C59.1383 232.269 58.9682 231.778 58.9682 224.064C58.9682 216.104 59.2517 215.466 62.653 215.122C65.7709 214.778 67.585 215.76 68.3786 218.119C68.8888 219.691 69.2289 220.084 70.3627 220.084C73.3672 220.084 71.95 214.827 68.4353 212.96C66.1677 211.731 61.6893 211.682 59.0816 212.812Z" fill="black"/>
</svg>
