<svg width="201" height="255" viewBox="0 0 201 255" fill="none" xmlns="http://www.w3.org/2000/svg">
<path d="M86.6835 2.16844C70.1339 6.54594 57.7532 17.1034 50.2995 33.0684C46.5095 41.1797 45.7515 44.2697 45.2462 54.5697L44.6145 66.6722L38.8032 67.0584C34.0025 67.4447 32.9919 67.8309 32.9919 70.0197C32.9919 72.3372 34.0025 72.5947 41.7089 72.9809C47.5202 73.2384 50.8049 72.8522 51.4365 71.8222C51.9419 70.9209 52.3209 65.5134 52.3209 59.7197C52.3209 46.3297 54.9739 36.6734 61.0379 28.4334C67.3545 20.0647 72.1552 16.0734 81.2512 11.8247C87.5679 8.73468 90.0945 8.21968 100.58 8.21968C110.055 8.34843 114.098 8.86343 119.783 11.3097C129.89 15.3009 139.996 24.9572 145.05 35.5147C148.713 43.1109 149.219 45.5572 149.85 58.3034L150.482 72.5947H158.694C166.021 72.5947 166.905 72.3372 166.905 70.0197C166.905 67.9597 165.895 67.3159 162.231 67.0584L157.43 66.6722V60.4922C157.43 43.1109 151.745 28.6909 140.502 17.1034C131.911 8.34843 122.689 3.32719 111.445 1.26719C101.465 -0.664063 96.5375 -0.406563 86.6835 2.16844Z" fill="black"/>
<path d="M87.9469 19.8072C78.3455 23.0259 70.1339 30.3647 65.2069 40.2784C61.4169 47.8747 60.9115 50.1922 60.9115 58.3034C60.9115 66.2859 61.4169 68.9897 64.9542 76.1997C74.0502 94.8684 93.0002 103.108 113.087 96.9284C119.404 95.1259 120.415 95.1259 131.785 97.7009C138.354 99.2459 143.913 100.276 144.165 100.018C144.418 99.7609 143.028 93.8384 141.007 86.8859C138.228 77.2297 137.722 73.4959 138.607 70.9209C139.238 69.1184 139.87 63.5822 139.87 58.4322C139.996 42.3384 132.29 29.5922 117.888 22.1247C109.803 18.0047 96.5375 16.9747 87.9469 19.8072ZM84.1569 57.7884C86.8099 62.6809 81.3775 68.0884 76.4505 65.5134C74.0502 64.2259 73.0396 57.9172 74.9345 56.1147C76.8295 54.1834 82.8935 55.2134 84.1569 57.7884ZM104.118 56.7584C108.287 61.0072 103.36 68.4747 98.1799 65.6422C95.1479 63.9684 94.3899 61.6509 95.6532 58.0459C96.7902 54.9559 101.591 54.1834 104.118 56.7584ZM125.847 57.1447C127.995 59.7197 126.479 64.9984 123.194 65.8997C120.415 66.6722 115.74 62.9384 115.74 59.9772C115.74 55.5997 122.941 53.5397 125.847 57.1447Z" fill="black"/>
<path d="M33.6235 84.1821C30.9705 87.4009 33.1182 89.8471 38.9295 90.2334L44.3619 90.6197L45.6252 153.707L50.1732 163.363C57.3742 178.427 68.7442 188.727 83.9042 193.62L90.4735 195.808L90.2209 217.31L89.8419 238.682L78.7245 239.583C59.5219 241 49.9205 244.476 54.3422 248.21C62.8065 255.291 126.858 256.192 143.913 249.368C149.219 247.308 148.082 244.733 140.502 242.545C134.311 240.742 113.34 238.167 103.486 238.038H99.3169V213.705C99.3169 189.628 99.3169 189.371 96.5375 188.598C94.8952 188.212 92.3685 187.826 90.9789 187.826C85.9255 187.826 70.6392 178.942 65.2069 172.891C62.3012 169.672 58.3849 163.75 56.6162 159.758C53.2052 152.548 53.2052 151.905 52.5735 118.558C52.0682 90.3622 51.5629 84.5684 50.0469 83.5384C47.0149 81.4784 35.3922 81.9934 33.6235 84.1821Z" fill="black"/>
<path d="M151.366 83.9247C150.608 84.8259 149.85 98.0872 149.598 118.301L149.219 151.132L145.176 159.758C138.733 173.792 125.594 184.736 112.329 187.311C108.666 187.955 108.16 188.598 108.16 191.946C108.16 195.808 108.287 195.808 112.961 195.165C127.237 192.718 144.671 178.942 151.619 164.265C156.42 154.222 157.43 146.368 157.43 116.885V90.1047L162.105 89.7184C165.642 89.4609 167.032 88.6884 167.284 86.8859C167.537 85.5984 167.032 84.0534 166.021 83.4097C163.494 81.7359 152.882 81.9934 151.366 83.9247Z" fill="black"/>
<path d="M0.0188773 94.3534C-0.612789 96.1559 14.7999 148.428 17.4529 153.45C18.0845 154.866 19.7269 155.638 21.3692 155.381C23.7695 154.995 25.2855 151.39 33.1182 126.026C42.4669 95.8984 42.9722 91.9072 37.0345 92.8084C34.7605 93.1947 33.4972 96.2846 28.0649 114.052C24.5275 125.511 21.3692 135.167 20.9902 135.553C20.6112 135.94 17.4529 127.185 14.1682 115.983C10.7572 104.911 7.47254 94.9972 6.71454 94.0959C5.07221 92.0359 0.903211 92.1646 0.0188773 94.3534Z" fill="black"/>
<path d="M171.58 94.7397C164.252 98.3447 162.484 104.01 162.484 123.451C162.484 141.733 163.621 146.368 169.306 151.647C173.854 156.025 185.224 156.797 191.414 153.321C199.626 148.815 203.542 134.91 196.846 134.008C195.078 133.751 193.814 134.395 193.309 135.94C190.909 143.278 189.772 145.21 186.487 146.626C184.466 147.527 181.181 147.785 179.033 147.27C171.706 145.725 171.327 144.437 171.327 124.223C171.327 103.366 171.959 101.692 179.539 100.791C186.487 99.8897 190.53 102.465 192.298 108.645C193.435 112.765 194.193 113.795 196.72 113.795C203.416 113.795 200.257 100.018 192.425 95.1259C187.371 91.9072 177.391 91.7784 171.58 94.7397Z" fill="black"/>
<path d="M60.1535 106.713H66.4702C71.2709 106.713 73.0395 107.228 73.6712 108.773C75.0609 112.636 72.2815 115.082 65.9649 115.468L60.1535 115.855V126.026H65.5859C72.2815 126.026 74.4292 127.442 73.7975 131.305C73.4185 134.008 72.6605 134.395 66.5965 134.781L59.7745 135.167L60.5325 141.605C62.3012 156.153 71.1445 168.642 84.0305 174.822C89.7155 177.526 93.0002 178.17 100.58 178.17C112.708 178.041 121.046 174.436 129.005 165.81C135.827 158.471 139.112 151.39 140.375 141.733L141.26 135.038H134.817C130.016 135.038 128.121 134.523 127.237 132.721C125.089 128.472 127.868 126.026 134.69 126.026H141.007V115.726H135.448C128.5 115.726 123.068 111.22 127.11 108.645C129.384 107.228 128.374 105.683 124.205 104.267C120.794 103.108 118.267 103.237 112.456 104.782C108.413 105.812 103.107 106.713 100.58 106.713C93.3792 106.713 81.5039 103.108 75.1872 98.9884C71.5235 96.5422 67.7335 95.1259 64.8279 95.1259H60.1535V106.713Z" fill="black"/>
</svg>
